<?xml version="1.0" encoding="UTF-8"?>
<svg version="1.1" xmlns="http://www.w3.org/2000/svg" width="200" height="200">
<path d="M0 0 C66 0 132 0 200 0 C200 66 200 132 200 200 C134 200 68 200 0 200 C0 134 0 68 0 0 Z " fill="#010000" transform="translate(0,0)"/>
<path d="M0 0 C0.495 0.99 0.495 0.99 1 2 C0.22265625 3.9453125 0.22265625 3.9453125 -0.9375 6.125 C-1.31777344 6.84945312 -1.69804688 7.57390625 -2.08984375 8.3203125 C-2.39019531 8.87460937 -2.69054687 9.42890625 -3 10 C-3.69480469 9.83628906 -4.38960938 9.67257813 -5.10546875 9.50390625 C-8.2352816 8.95904004 -11.13798083 8.90261517 -14.3125 8.9375 C-15.38113281 8.94652344 -16.44976562 8.95554687 -17.55078125 8.96484375 C-18.35902344 8.97644531 -19.16726562 8.98804688 -20 9 C-20 10.65 -20 12.3 -20 14 C-19.34 14.33 -18.68 14.66 -18 15 C-18.495 16.485 -18.495 16.485 -19 18 C-18.01 18.33 -17.02 18.66 -16 19 C-16.66 20.32 -17.32 21.64 -18 23 C-17.07767578 23.38091797 -17.07767578 23.38091797 -16.13671875 23.76953125 C-15.32847656 24.11371094 -14.52023438 24.45789063 -13.6875 24.8125 C-12.88699219 25.14894531 -12.08648437 25.48539063 -11.26171875 25.83203125 C-9 27 -9 27 -6 30 C-7.98 31.98 -9.96 33.96 -12 36 C-12.99 35.505 -12.99 35.505 -14 35 C-17.77396601 33.74201133 -21.06073902 33.33151935 -25 34 C-27.8100346 35.79363911 -29.50940468 37.01880935 -31 40 C-31.43808718 44.28819956 -31.44926618 47.94422448 -29.75 51.9375 C-26.85770667 55.34627428 -25.02098845 55.90718287 -20.5625 56.3125 C-16.82296894 55.98447096 -14.99877231 55.18092532 -12 53 C-10.35 54.98 -8.7 56.96 -7 59 C-8.00442585 62.23648331 -8.99583109 62.99765499 -12 64.6875 C-16.51569384 66.44413355 -21.20037268 66.71994126 -26 67 C-24.35 67.33 -22.7 67.66 -21 68 C-21 71.96 -21 75.92 -21 80 C-26.61 79.67 -32.22 79.34 -38 79 C-38 80.98 -38 82.96 -38 85 C-38.99 84.505 -38.99 84.505 -40 84 C-41.485 84.495 -41.485 84.495 -43 85 C-43.33 85.99 -43.66 86.98 -44 88 C-50.51056485 86.96561119 -56.27959714 81.44120251 -60.24023438 76.43115234 C-68.6447844 64.46287334 -72.16894881 52.59562473 -71 38 C-67.89764004 23.24692955 -60.60798746 10.96972437 -47.9140625 2.609375 C-32.72105818 -5.7813995 -16.12008531 -6.64195996 0 0 Z " fill="#1B0706" transform="translate(122,55)"/>
<path d="M0 0 C1.15242188 0.00902344 2.30484375 0.01804687 3.4921875 0.02734375 C4.36101562 0.03894531 5.22984375 0.05054687 6.125 0.0625 C6.125 3.3625 6.125 6.6625 6.125 10.0625 C4.97644531 10.14886719 3.82789062 10.23523437 2.64453125 10.32421875 C-17.4195189 12.04950598 -32.15746603 19.27973567 -45.8515625 34.21875 C-55.79156514 46.30439198 -60.47490779 60.21623489 -60.375 75.75 C-60.36927979 76.79438232 -60.36355957 77.83876465 -60.35766602 78.91479492 C-59.90468848 98.72531757 -50.89353804 113.53966698 -36.875 127.0625 C-34.01516059 129.38641594 -31.09852552 131.28477912 -27.875 133.0625 C-27.08480469 133.51109375 -26.29460937 133.9596875 -25.48046875 134.421875 C-15.30582967 139.86971325 -5.32218955 141.53472814 6.125 142.0625 C6.125 145.6925 6.125 149.3225 6.125 153.0625 C-11.38025726 154.13425044 -30.56630931 146.99746688 -43.67578125 135.48046875 C-44.875 134.0625 -44.875 134.0625 -44.875 132.0625 C-45.43703125 131.82917969 -45.9990625 131.59585938 -46.578125 131.35546875 C-58.45195321 124.67139199 -65.6750381 109.09620025 -69.375 96.625 C-74.1435349 76.78759646 -71.74584897 55.58648569 -61.65625 37.9296875 C-54.19020461 25.91197409 -45.85016475 17.56342737 -33.875 10.0625 C-32.823125 9.381875 -31.77125 8.70125 -30.6875 8 C-21.2230953 2.71237484 -10.78645822 -0.1100659 0 0 Z " fill="#EA5929" transform="translate(94.875,23.9375)"/>
<path d="M0 0 C1.35427599 0.9714496 2.6976273 1.9599985 4 3 C2.62845496 5.95409701 1.01136276 8.44008376 -1 11 C-4.35101846 10.37215681 -6.51206877 9.09798417 -9.3125 7.1875 C-21.41353545 -0.19769075 -35.56399151 -1.88169094 -49.25 1.25 C-63.20836473 5.22501988 -73.99018296 12.6730878 -82 25 C-88.97166896 38.25149292 -91.03487437 52.46434255 -87.03125 66.921875 C-83.64683293 77.02384717 -78.48618654 84.48054152 -71 92 C-73.50961538 97.18010355 -73.50961538 97.18010355 -76 99 C-81.96369843 98.22533402 -85.34468592 93.12120205 -88.83203125 88.65234375 C-98.73796203 74.34377707 -102.03084069 56.26933616 -99 39.25 C-94.91357828 22.10973112 -85.16336524 7.95773377 -70.30859375 -1.61328125 C-69.54675781 -2.07089844 -68.78492187 -2.52851562 -68 -3 C-67.08927734 -3.57814453 -67.08927734 -3.57814453 -66.16015625 -4.16796875 C-45.02493831 -16.23862932 -20.0183832 -11.65935562 0 0 Z " fill="#E95A2A" transform="translate(137,48)"/>
<path d="M0 0 C0.495 0.99 0.495 0.99 1 2 C0.22265625 3.9453125 0.22265625 3.9453125 -0.9375 6.125 C-1.31777344 6.84945312 -1.69804688 7.57390625 -2.08984375 8.3203125 C-2.39019531 8.87460937 -2.69054687 9.42890625 -3 10 C-4.134375 9.505 -5.26875 9.01 -6.4375 8.5 C-16.15621994 5.29113354 -28.13920881 5.59147138 -37.51171875 9.6875 C-48.23386948 15.34313995 -54.90187235 22.31638705 -58.9375 33.9375 C-61.69092939 44.83075503 -60.33328823 55.58220978 -54.64453125 65.3203125 C-51.0956904 70.3248441 -46.54690783 75.22654609 -41 78 C-40.63370592 82.27343092 -41.59185923 84.48812804 -44 88 C-50.51056485 86.96561119 -56.27959714 81.44120251 -60.24023438 76.43115234 C-68.6447844 64.46287334 -72.16894881 52.59562473 -71 38 C-67.89764004 23.24692955 -60.60798746 10.96972437 -47.9140625 2.609375 C-32.72105818 -5.7813995 -16.12008531 -6.64195996 0 0 Z " fill="#E9592B" transform="translate(122,55)"/>
<path d="M0 0 C0 3.3 0 6.6 0 10 C-1.340625 10.2475 -2.68125 10.495 -4.0625 10.75 C-12.0843752 12.57315345 -17.30788007 16.20916828 -22 23 C-24.83091173 28.53314565 -24.84366783 34.93753735 -24 41 C-21.81132986 47.07531213 -18.66831658 52.61182532 -13.078125 56.07421875 C-8.88505872 57.94218249 -4.46853959 59.00609336 0 60 C0 63.3 0 66.6 0 70 C-7.86639223 69.6628689 -13.25848013 68.03386025 -20 64 C-20.72445312 63.60167969 -21.44890625 63.20335937 -22.1953125 62.79296875 C-29.34936523 58.29108386 -32.60392784 50.48213703 -34.640625 42.484375 C-35.9413734 33.49224477 -35.78906279 24.91347809 -31 17 C-22.62109159 5.96830978 -14.20777629 -0.49851847 0 0 Z " fill="#EF5929" transform="translate(101,65)"/>
<path d="M0 0 C3 1.6875 3 1.6875 6 4.6875 C4.02 6.6675 2.04 8.6475 0 10.6875 C-0.66 10.3575 -1.32 10.0275 -2 9.6875 C-5.77396601 8.42951133 -9.06073902 8.01901935 -13 8.6875 C-15.8100346 10.48113911 -17.50940468 11.70630935 -19 14.6875 C-19.43808718 18.97569956 -19.44926618 22.63172448 -17.75 26.625 C-14.85770667 30.03377428 -13.02098845 30.59468287 -8.5625 31 C-4.82296894 30.67197096 -2.99877231 29.86842532 0 27.6875 C2.475 30.6575 2.475 30.6575 5 33.6875 C3.9967047 36.92034041 2.97398572 37.702675 0 39.4375 C-6.00896159 41.6986685 -12.35999855 41.73777311 -18.25 39.125 C-24.03732529 35.82130419 -27.92291853 30.99427463 -30 24.6875 C-30.90916387 17.61505083 -30.29885529 11.5074887 -26 5.6875 C-19.22990652 -1.58339492 -9.27794906 -3.75066026 0 0 Z " fill="#F4F5F4" transform="translate(110,80.3125)"/>
<path d="M0 0 C-0.99 0.33 -1.98 0.66 -3 1 C-3.99 0.505 -3.99 0.505 -5 0 C-5.66 2.97 -6.32 5.94 -7 9 C-7.99 8.01 -7.99 8.01 -9 7 C-8.34 5.02 -7.68 3.04 -7 1 C-22.62357737 -4.46825208 -36.82771788 -5.0156905 -52 2 C-64.06074958 8.90902217 -71.64361133 19.05085847 -75.75 32.1875 C-79.01079784 45.15902547 -77.13262139 57.84003966 -70.625 69.4375 C-68.11879273 73.48964144 -65.57307804 76.81320067 -62 80 C-60.64444707 81.64864545 -59.30368347 83.31003995 -58 85 C-59.32 84.67 -60.64 84.34 -62 84 C-62.33 84.99 -62.66 85.98 -63 87 C-74.87812218 73.11579497 -83.37206894 59.85324362 -82 41 C-79.73960084 24.64083996 -73.08064069 12.66355382 -60.5546875 1.8984375 C-43.65458829 -10.87173393 -17.66445822 -12.06353244 0 0 Z " fill="#2A0905" transform="translate(129,55)"/>
<path d="M0 0 C1.84375 1.5234375 1.84375 1.5234375 3 3 C2.07960938 3.09796875 1.15921875 3.1959375 0.2109375 3.296875 C-19.64741196 5.64266781 -35.8412756 11.57907806 -49.00390625 27.41015625 C-58.4188389 40.24130636 -63.77502726 55.98574305 -62 72 C-59.33764563 87.07143953 -53.97505092 101.84723944 -42 112 C-40.68 112 -39.36 112 -38 112 C-38.33 114.64 -38.66 117.28 -39 120 C-52.59816056 109.00574253 -63.04851421 95.56341894 -66 78 C-67.83531125 60.26892249 -66.11060889 42.57244072 -55 28 C-41.65464434 11.91500678 -22.4024374 -3.52630959 0 0 Z " fill="#220704" transform="translate(100,34)"/>
<path d="M0 0 C2.03125 0.26953125 2.03125 0.26953125 4.5 0.8125 C5.72203125 1.06966797 5.72203125 1.06966797 6.96875 1.33203125 C7.6390625 1.55246094 8.309375 1.77289063 9 2 C9.495 2.99 9.495 2.99 10 4 C9.22265625 5.9453125 9.22265625 5.9453125 8.0625 8.125 C7.49208984 9.21167969 7.49208984 9.21167969 6.91015625 10.3203125 C6.60980469 10.87460937 6.30945313 11.42890625 6 12 C4.865625 11.505 3.73125 11.01 2.5625 10.5 C-7.17930302 7.28351212 -19.07412245 7.63454536 -28.4921875 11.65234375 C-33.74792813 14.47669035 -38.77104921 17.77104921 -43 22 C-43.33 20.68 -43.66 19.36 -44 18 C-43.01 17.67 -42.02 17.34 -41 17 C-40.67 16.01 -40.34 15.02 -40 14 C-38.68 14 -37.36 14 -36 14 C-36 13.01 -36 12.02 -36 11 C-39.3 11 -42.6 11 -46 11 C-42.90347804 7.72653393 -40.04980088 5.02490044 -36 3 C-35.01 3 -34.02 3 -33 3 C-33 3.66 -33 4.32 -33 5 C-34.98 5.99 -34.98 5.99 -37 7 C-35.68 7.66 -34.36 8.32 -33 9 C-33.33 9.33 -33.66 9.66 -34 10 C-32.68 10.33 -31.36 10.66 -30 11 C-30 10.34 -30 9.68 -30 9 C-27.04335481 7.5216774 -24.25770263 7.93967217 -21 8 C-21 7.01 -21 6.02 -21 5 C-14.73 5 -8.46 5 -2 5 C-1.505 5.99 -1.505 5.99 -1 7 C-1.020625 6.030625 -1.04125 5.06125 -1.0625 4.0625 C-1 1 -1 1 0 0 Z " fill="#EE5B2B" transform="translate(113,53)"/>
<path d="M0 0 C1.794375 -0.00386719 1.794375 -0.00386719 3.625 -0.0078125 C6.55327693 0.10742062 9.15786976 0.44676437 12 1.125 C12 1.455 12 1.785 12 2.125 C11.31373535 2.15005615 10.6274707 2.1751123 9.92041016 2.20092773 C6.82174183 2.31671427 3.72339077 2.43951885 0.625 2.5625 C-0.45523438 2.60181641 -1.53546875 2.64113281 -2.6484375 2.68164062 C-3.6796875 2.72353516 -4.7109375 2.76542969 -5.7734375 2.80859375 C-6.72653809 2.84525146 -7.67963867 2.88190918 -8.66162109 2.91967773 C-11.02132349 2.98263465 -11.02132349 2.98263465 -13 4.125 C-12.67 4.785 -12.34 5.445 -12 6.125 C-12.66 6.125 -13.32 6.125 -14 6.125 C-14 6.785 -14 7.445 -14 8.125 C-12.82824219 8.11339844 -11.65648437 8.10179687 -10.44921875 8.08984375 C-1.90855219 8.03165739 6.50709548 8.07741706 15 9.125 C15 9.785 15 10.445 15 11.125 C15.99 11.125 16.98 11.125 18 11.125 C18 11.785 18 12.445 18 13.125 C17.35675781 12.980625 16.71351562 12.83625 16.05078125 12.6875 C5.22638302 10.46394316 -4.58129182 10.30069876 -15.24609375 13.37109375 C-18.14797138 14.16550848 -21.02717732 14.67404163 -24 15.125 C-23.67 14.135 -23.34 13.145 -23 12.125 C-23.66 11.795 -24.32 11.465 -25 11.125 C-23.68 10.795 -22.36 10.465 -21 10.125 C-23.64 9.465 -26.28 8.805 -29 8.125 C-26.33023419 4.7147152 -23.20584143 4.09570161 -19.125 3 C-17.91070312 2.66742188 -16.69640625 2.33484375 -15.4453125 1.9921875 C-10.13481586 0.65553188 -5.50001131 -0.01185347 0 0 Z " fill="#D65830" transform="translate(100,36.875)"/>
<path d="M0 0 C1.32 0.33 2.64 0.66 4 1 C4 1.66 4 2.32 4 3 C2.68 3 1.36 3 0 3 C0.66 3.33 1.32 3.66 2 4 C2.33 9.94 2.66 15.88 3 22 C3.66 22.33 4.32 22.66 5 23 C4.125 30.75 4.125 30.75 3 33 C3.99 33 4.98 33 6 33 C6 33.66 6 34.32 6 35 C7.32 35.33 8.64 35.66 10 36 C9.505 36.495 9.505 36.495 9 37 C10.32 37.66 11.64 38.32 13 39 C10.3333581 40.33332095 8.83319697 39.67102033 6 39 C5.67 37.68 5.34 36.36 5 35 C3.68 34.67 2.36 34.34 1 34 C1 32.35 1 30.7 1 29 C0.67 29 0.34 29 0 29 C-0.99 29 -1.98 29 -3 29 C-3.33333333 27.66666667 -3.66666667 26.33333333 -4 25 C-4.17402344 24.43667969 -4.34804687 23.87335938 -4.52734375 23.29296875 C-5.16677304 20.19094403 -5.13175588 17.2276282 -5.125 14.0625 C-5.12757812 12.85722656 -5.13015625 11.65195313 -5.1328125 10.41015625 C-5.01821801 7.46777408 -4.68262539 4.85510777 -4 2 C-3.67 2.66 -3.34 3.32 -3 4 C-2.34 4 -1.68 4 -1 4 C-0.67 2.68 -0.34 1.36 0 0 Z " fill="#EF5A27" transform="translate(73,87)"/>
<path d="M0 0 C0.66 0.33 1.32 0.66 2 1 C1.360625 1.7425 0.72125 2.485 0.0625 3.25 C-1.86900385 5.82533846 -2.43118252 6.96630676 -3 10 C-3.33 10.75667969 -3.66 11.51335937 -4 12.29296875 C-6.15172048 18.11774334 -5.95353083 24.71297606 -3.375 30.375 C-0.2632876 35.74077969 4.06066184 39.07844942 10 41 C10 41.66 10 42.32 10 43 C11.65 43.33 13.3 43.66 15 44 C15 44.66 15 45.32 15 46 C8.14741693 45.51052978 2.15584504 44.34106393 -2.73046875 39.16796875 C-4.27658382 37.17138065 -5.65535772 35.13634754 -7 33 C-7.61875 32.0925 -8.2375 31.185 -8.875 30.25 C-11.15598999 23.66047335 -10.99468674 16.60297015 -8.375 10.125 C-6.25701191 5.94235445 -3.49120833 3.09448011 0 0 Z " fill="#230D0B" transform="translate(86,79)"/>
<path d="M0 0 C0.33 0 0.66 0 1 0 C1.36351562 1.57587891 1.36351562 1.57587891 1.734375 3.18359375 C5.06366223 17.27847223 9.57785447 30.31600705 21 40 C22.32 40 23.64 40 25 40 C24.67 42.64 24.34 45.28 24 48 C11.64610426 38.01174387 1.38028916 25.89901523 -2 10 C-1.6328125 7.8515625 -1.6328125 7.8515625 -1 6 C-0.65421232 4.00211562 -0.31856451 2.00240549 0 0 Z " fill="#2C0905" transform="translate(37,106)"/>
<path d="M0 0 C10.95843834 0.6322176 20.27599926 5.58918127 29 12 C27.58208437 14.93446886 26.01667393 17.43332409 24 20 C20.50446743 19.34306697 17.9519834 17.92211344 14.9375 16.0625 C13.65166016 15.27552734 13.65166016 15.27552734 12.33984375 14.47265625 C10.54288931 13.34168492 8.76664116 12.17776077 7 11 C10.3 11 13.6 11 17 11 C17 11.66 17 12.32 17 13 C17.66 13 18.32 13 19 13 C19 11.68 19 10.36 19 9 C18.34 8.67 17.68 8.34 17 8 C17 7.34 17 6.68 17 6 C15.02 6.33 13.04 6.66 11 7 C11 6.01 11 5.02 11 4 C9.9275 4.020625 8.855 4.04125 7.75 4.0625 C4.85209576 4.0142016 2.71387859 3.86844115 0 3 C0 2.01 0 1.02 0 0 Z " fill="#E25B32" transform="translate(112,39)"/>
<path d="M0 0 C0.33 0 0.66 0 1 0 C1.33 3.63 1.66 7.26 2 11 C0.35 11.66 -1.3 12.32 -3 13 C-2.67 15.64 -2.34 18.28 -2 21 C-1.01 21 -0.02 21 1 21 C2.46016255 26.20182909 3.21806848 30.54828797 3 36 C3 38.48351743 3.84447572 39.82489547 5 42 C5.33 42.66 5.66 43.32 6 44 C1.375 46.125 1.375 46.125 -2 45 C-2.125 37.375 -2.125 37.375 -1 34 C-0.93259135 32.43881572 -0.91485544 30.8749748 -0.9375 29.3125 C-0.94652344 28.50425781 -0.95554687 27.69601563 -0.96484375 26.86328125 C-0.97644531 26.24839844 -0.98804688 25.63351563 -1 25 C-1.99 25.99 -2.98 26.98 -4 28 C-5.19382927 24.41851219 -5.24203361 21.40051474 -5.3125 17.625 C-5.34988281 16.31789063 -5.38726563 15.01078125 -5.42578125 13.6640625 C-4.93835072 9.46947686 -3.80818152 8.04625471 -1 5 C-0.21053391 2.31492671 -0.21053391 2.31492671 0 0 Z " fill="#EF5826" transform="translate(31,83)"/>
<path d="M0 0 C0.33 0 0.66 0 1 0 C1.33 2.97 1.66 5.94 2 9 C2.66 9 3.32 9 4 9 C4.33 8.01 4.66 7.02 5 6 C5.99 6.33 6.98 6.66 8 7 C7.71125 7.51046875 7.4225 8.0209375 7.125 8.546875 C3.30875009 16.02036441 2.63070979 23.89047823 5 32 C4.01 32.495 4.01 32.495 3 33 C1.0939421 29.18788421 1.58204798 24.35063774 1.39453125 20.12109375 C1.2895814 15.92637012 1.2895814 15.92637012 0 12 C1.32 12 2.64 12 4 12 C4 11.34 4 10.68 4 10 C2.68 10 1.36 10 0 10 C-0.33 10.99 -0.66 11.98 -1 13 C-1.66 13 -2.32 13 -3 13 C-4.14693757 16.44081271 -4.16819738 19.18746712 -4.1875 22.8125 C-4.20167969 24.01519531 -4.21585937 25.21789062 -4.23046875 26.45703125 C-4.00124672 29.98083425 -3.27030979 32.72129528 -2 36 C-2.99 36.495 -2.99 36.495 -4 37 C-7.95989594 26.55813154 -8.72792981 16.48146506 -4.16796875 6.12109375 C-2.94619368 3.90228484 -1.61466172 1.95086526 0 0 Z " fill="#D55931" transform="translate(73,78)"/>
<path d="M0 0 C0.33 0.66 0.66 1.32 1 2 C1.99 2.33 2.98 2.66 4 3 C4 4.65 4 6.3 4 8 C5.32 8.33 6.64 8.66 8 9 C8 10.32 8 11.64 8 13 C9.32 13.33 10.64 13.66 12 14 C11.67 15.65 11.34 17.3 11 19 C10.34 19 9.68 19 9 19 C9 19.66 9 20.32 9 21 C5.57844523 19.53361938 3.23516124 18.00590649 1 15 C0.57035807 12.65991143 0.37606853 10.39974053 0.2734375 8.0234375 C0.1775024 5.77347359 0.1775024 5.77347359 -2 4 C-2 3.01 -2 2.02 -2 1 C-1.34 0.67 -0.68 0.34 0 0 Z " fill="#F15927" transform="translate(41,135)"/>
<path d="M0 0 C0.75861328 -0.00563965 1.51722656 -0.0112793 2.29882812 -0.01708984 C7.80615915 0.05615915 7.80615915 0.05615915 10.0625 2.3125 C8.79792969 2.30089844 7.53335938 2.28929687 6.23046875 2.27734375 C4.57031398 2.26796434 2.91015761 2.2588643 1.25 2.25 C0.41662109 2.24162109 -0.41675781 2.23324219 -1.27539062 2.22460938 C-2.07783203 2.22138672 -2.88027344 2.21816406 -3.70703125 2.21484375 C-4.44542236 2.20960693 -5.18381348 2.20437012 -5.94458008 2.19897461 C-8.14807409 2.23726787 -8.14807409 2.23726787 -10.9375 3.3125 C-10.2775 3.9725 -9.6175 4.6325 -8.9375 5.3125 C-10.731875 5.93125 -10.731875 5.93125 -12.5625 6.5625 C-19.49904706 9.20789668 -23.84056711 13.04292113 -28.51953125 18.703125 C-28.98746094 19.23421875 -29.45539063 19.7653125 -29.9375 20.3125 C-30.2675 20.3125 -30.5975 20.3125 -30.9375 20.3125 C-31.75 17.625 -31.75 17.625 -31.9375 14.3125 C-30.29292487 12.11973317 -29.07858096 10.92564319 -26.9375 9.3125 C-26.26976563 8.80460937 -25.60203125 8.29671875 -24.9140625 7.7734375 C-16.74556247 1.95517257 -9.92968948 0.07246437 0 0 Z " fill="#380E07" transform="translate(101.9375,60.6875)"/>
<path d="M0 0 C0 0.66 0 1.32 0 2 C-1.98 2.99 -1.98 2.99 -4 4 C-2.68 4.66 -1.36 5.32 0 6 C-0.33 6.33 -0.66 6.66 -1 7 C0.32 7.33 1.64 7.66 3 8 C3 7.34 3 6.68 3 6 C10.12950371 4.09879901 16.63740707 3.77575859 24 4 C24 4.33 24 4.66 24 5 C23.33355469 5.02578125 22.66710937 5.0515625 21.98046875 5.078125 C9.55367378 5.84285084 -1.09023375 10.09023375 -10 19 C-10.33 17.68 -10.66 16.36 -11 15 C-10.01 14.67 -9.02 14.34 -8 14 C-7.67 13.01 -7.34 12.02 -7 11 C-5.68 11 -4.36 11 -3 11 C-3 10.01 -3 9.02 -3 8 C-6.3 8 -9.6 8 -13 8 C-5.43243243 0 -5.43243243 0 0 0 Z " fill="#D85A31" transform="translate(80,56)"/>
<path d="M0 0 C11.63172584 -0.49613996 22.263212 -0.66393015 32.25 6.25 C32.8275 6.8275 33.405 7.405 34 8 C31.525 7.505 31.525 7.505 29 7 C28.34 9.97 27.68 12.94 27 16 C26.34 15.34 25.68 14.68 25 14 C25.66 12.02 26.32 10.04 27 8 C13.22138772 3.86307414 13.22138772 3.86307414 -1 2 C-0.67 1.34 -0.34 0.68 0 0 Z " fill="#300C06" transform="translate(95,48)"/>
<path d="M0 0 C2.79711806 0.65999415 5.48522531 1.45900279 8.1875 2.4375 C9.22970703 2.80681641 9.22970703 2.80681641 10.29296875 3.18359375 C12 4 12 4 13 6 C13.763125 5.938125 14.52625 5.87625 15.3125 5.8125 C16.199375 5.874375 17.08625 5.93625 18 6 C18.38929687 6.46535156 18.77859375 6.93070313 19.1796875 7.41015625 C21.97027405 9.8474282 25.2621867 10.05849489 28.8125 10.625 C29.86147461 10.80675781 29.86147461 10.80675781 30.93164062 10.9921875 C32.95265146 11.34005092 34.97568163 11.67200661 37 12 C38.73830078 12.29003906 38.73830078 12.29003906 40.51171875 12.5859375 C41.33285156 12.72257813 42.15398437 12.85921875 43 13 C43 10.69 43 8.38 43 6 C41.02 5.67 39.04 5.34 37 5 C37 4.67 37 4.34 37 4 C39.64 4 42.28 4 45 4 C45 7.63 45 11.26 45 15 C29.01072497 15.97893521 12.96745765 10.07722036 0 1 C0 0.67 0 0.34 0 0 Z " fill="#C65634" transform="translate(56,162)"/>
<path d="M0 0 C0 3.3 0 6.6 0 10 C-1.65 10 -3.3 10 -5 10 C-4.34 9.34 -3.68 8.68 -3 8 C-2.60235737 6.01178687 -2.26224651 4.01055661 -2 2 C-2.99 2.33 -3.98 2.66 -5 3 C-5 3.66 -5 4.32 -5 5 C-7.31 4.67 -9.62 4.34 -12 4 C-11.67 5.32 -11.34 6.64 -11 8 C-12.65 8.33 -14.3 8.66 -16 9 C-16 8.34 -16 7.68 -16 7 C-16.66 7 -17.32 7 -18 7 C-18 8.32 -18 9.64 -18 11 C-20.97 11.66 -23.94 12.32 -27 13 C-19.39076026 3.57903652 -12.2475237 -0.42973767 0 0 Z " fill="#DC5A32" transform="translate(101,65)"/>
<path d="M0 0 C0.66 0.33 1.32 0.66 2 1 C1.34 2.98 0.68 4.96 0 7 C1.32 7.33 2.64 7.66 4 8 C4.33 9.32 4.66 10.64 5 12 C5.99 12 6.98 12 8 12 C8 12.66 8 13.32 8 14 C9.65 14 11.3 14 13 14 C13.33 14.66 13.66 15.32 14 16 C16.57437581 16.91280138 16.57437581 16.91280138 19.5625 17.625 C20.57441406 17.88539063 21.58632812 18.14578125 22.62890625 18.4140625 C23.80259766 18.70410156 23.80259766 18.70410156 25 19 C24.67 18.01 24.34 17.02 24 16 C22.68 16 21.36 16 20 16 C20 15.34 20 14.68 20 14 C21.32 14 22.64 14 24 14 C24 13.34 24 12.68 24 12 C23.34 11.67 22.68 11.34 22 11 C23.65 11 25.3 11 27 11 C27 14.3 27 17.6 27 21 C16.30842988 20.54178985 6.69820876 16.67974783 -1 9 C-2.39816288 6.66502091 -3.16317972 4.61506338 -4 2 C-2.125 0.9375 -2.125 0.9375 0 0 Z " fill="#C75530" transform="translate(74,114)"/>
<path d="M0 0 C0.68980957 -0.00531738 1.37961914 -0.01063477 2.09033203 -0.01611328 C6.05380835 0.03916398 7.97434788 0.48717394 11.625 2.3125 C5.355 2.6425 -0.915 2.9725 -7.375 3.3125 C-1.435 3.6425 4.505 3.9725 10.625 4.3125 C10.625 4.6425 10.625 4.9725 10.625 5.3125 C5.430482 6.23596987 0.54664873 6.34121235 -4.7265625 6.15234375 C-7.64010413 6.32853137 -9.73762048 7.09854372 -12.375 8.3125 C-13.035 7.3225 -13.695 6.3325 -14.375 5.3125 C-17.45865871 5.0622843 -17.45865871 5.0622843 -20.375 5.3125 C-15.14289584 0.08039584 -7.0080609 0.02707045 0 0 Z " fill="#D85934" transform="translate(100.375,50.6875)"/>
<path d="M0 0 C1.32 0 2.64 0 4 0 C4 0.66 4 1.32 4 2 C4.99 2.33 5.98 2.66 7 3 C6.030625 3.28875 5.06125 3.5775 4.0625 3.875 C0.89335797 4.64214682 0.89335797 4.64214682 0 7 C-2.64860427 7.59355614 -5.29197322 7.74209269 -8 8 C-8 8.99 -8 9.98 -8 11 C-8.86625 10.9175 -9.7325 10.835 -10.625 10.75 C-14.75988007 11.05628741 -16.74642697 12.52108722 -20 15 C-18.75596862 11.26790586 -16.82756102 9.69291525 -14 7 C-13.2265625 6.13375 -13.2265625 6.13375 -12.4375 5.25 C-10.05251761 3.17610227 -7.42561939 3.07093657 -4.375 2.5625 C-1.82892516 2.17899671 -1.82892516 2.17899671 0 0 Z " fill="#F15928" transform="translate(68,34)"/>
<path d="M0 0 C0.34833144 4.87664009 -0.58314288 7.77050005 -3 12 C-3.66 12 -4.32 12 -5 12 C-5.33 18.6 -5.66 25.2 -6 32 C-6.66 32 -7.32 32 -8 32 C-9.16898996 9.15373989 -9.16898996 9.15373989 -3.5078125 1.4140625 C-2 0 -2 0 0 0 Z " fill="#130505" transform="translate(71,76)"/>
<path d="M0 0 C0.66 0 1.32 0 2 0 C2 1.32 2 2.64 2 4 C2.66 3.67 3.32 3.34 4 3 C4 4.98 4 6.96 4 9 C3.34 9 2.68 9 2 9 C1.814375 10.9490625 1.814375 10.9490625 1.625 12.9375 C1.4140625 15.15234375 1.4140625 15.15234375 1 17 C0.34 17.33 -0.32 17.66 -1 18 C-1.66 17.67 -2.32 17.34 -3 17 C-3.625 14.9375 -3.625 14.9375 -4 13 C-4.33 13 -4.66 13 -5 13 C-4.67 10.36 -4.34 7.72 -4 5 C-3.34 5 -2.68 5 -2 5 C-1.7834375 4.0409375 -1.7834375 4.0409375 -1.5625 3.0625 C-1 1 -1 1 0 0 Z " fill="#EF5827" transform="translate(60,75)"/>
<path d="M0 0 C7.34467941 1.61831919 14.67349113 3.30142762 22 5 C22.33 6.32 22.66 7.64 23 9 C22.67 8.34 22.34 7.68 22 7 C17.19463106 5.84008336 14.41367485 5.38715188 10.125 8 C9.09375 8.66 8.0625 9.32 7 10 C6.34 9.67 5.68 9.34 5 9 C5.33 8.01 5.66 7.02 6 6 C3.36 5.67 0.72 5.34 -2 5 C-2 3 -2 3 0 1 C0 0.67 0 0.34 0 0 Z " fill="#E85C31" transform="translate(74,162)"/>
<path d="M0 0 C0.99 0 1.98 0 3 0 C2.67 8.91 2.34 17.82 2 27 C1.67 27 1.34 27 1 27 C0.67 24.36 0.34 21.72 0 19 C-0.66 19 -1.32 19 -2 19 C-2.33 19.66 -2.66 20.32 -3 21 C-4.58650123 17.82699754 -4.55190456 14.44761158 -4 11 C-2.66666667 10 -1.33333333 9 0 8 C0.37469677 5.25038694 0.18303992 2.79135883 0 0 Z " fill="#E95B2E" transform="translate(32,85)"/>
<path d="M0 0 C0.33 1.32 0.66 2.64 1 4 C1.66 4 2.32 4 3 4 C3.33 2.68 3.66 1.36 4 0 C6.25998595 3.59462331 6.20868087 6.56595675 6.125 10.75 C6.10695313 11.92046875 6.08890625 13.0909375 6.0703125 14.296875 C6.03550781 15.63492188 6.03550781 15.63492188 6 17 C4.34385343 17.38218767 2.67542976 17.71395102 1 18 C0 17 0 17 -0.09765625 13.18359375 C-0.09098089 11.60153318 -0.07901875 10.01948841 -0.0625 8.4375 C-0.05798828 7.63119141 -0.05347656 6.82488281 -0.04882812 5.99414062 C-0.03700518 3.99606244 -0.01906914 1.99802217 0 0 Z " fill="#F15A25" transform="translate(53,92)"/>
<path d="M0 0 C0 0.99 0 1.98 0 3 C-0.61875 3.061875 -1.2375 3.12375 -1.875 3.1875 C-2.57625 3.455625 -3.2775 3.72375 -4 4 C-4.69040574 5.65697379 -5.3530635 7.3255761 -6 9 C-7.62652316 10.70586575 -9.29006566 12.3777546 -11 14 C-11.33 14.66 -11.66 15.32 -12 16 C-12.99 16.33 -13.98 16.66 -15 17 C-15.33 17.99 -15.66 18.98 -16 20 C-17.32467746 20.6837045 -18.65863633 21.34964186 -20 22 C-20.66 22.99 -21.32 23.98 -22 25 C-22.66 24.67 -23.32 24.34 -24 24 C-17.55547971 13.97519065 -9.79660556 6.73516632 0 0 Z " fill="#CC5732" transform="translate(59,35)"/>
<path d="M0 0 C1.15242188 0.00902344 2.30484375 0.01804687 3.4921875 0.02734375 C4.36101562 0.03894531 5.22984375 0.05054687 6.125 0.0625 C6.125 3.3625 6.125 6.6625 6.125 10.0625 C1.835 10.0625 -2.455 10.0625 -6.875 10.0625 C-4.875 8.0625 -4.875 8.0625 -2.7109375 7.8671875 C-1.49277344 7.90199219 -1.49277344 7.90199219 -0.25 7.9375 C0.97589844 7.96457031 0.97589844 7.96457031 2.2265625 7.9921875 C3.16628906 8.02699219 3.16628906 8.02699219 4.125 8.0625 C4.125 5.7525 4.125 3.4425 4.125 1.0625 C1.06096674 1.51093895 -2.00086279 1.97300654 -5.0625 2.4375 C-6.35897461 2.62699219 -6.35897461 2.62699219 -7.68164062 2.8203125 C-11.99541829 3.48142785 -15.89581745 4.16765117 -19.875 6.0625 C-20.535 5.4025 -21.195 4.7425 -21.875 4.0625 C-20.50208132 3.57740207 -19.12653297 3.09974487 -17.75 2.625 C-16.98429687 2.35816406 -16.21859375 2.09132813 -15.4296875 1.81640625 C-10.25838992 0.29031996 -5.37567799 -0.05485386 0 0 Z " fill="#C35635" transform="translate(94.875,23.9375)"/>
<path d="M0 0 C0.99 1.0209375 0.99 1.0209375 2 2.0625 C7.97167165 8.23960743 7.97167165 8.23960743 15 13 C15.36629408 17.27343092 14.40814077 19.48812804 12 23 C7.62140745 22.49477778 5.18348776 19.82172778 2 17 C5.38023517 17 7.83468937 17.87455622 11 19 C11.33 18.01 11.66 17.02 12 16 C11.01 15.67 10.02 15.34 9 15 C9.66 14.67 10.32 14.34 11 14 C10.45730469 13.55269531 9.91460937 13.10539063 9.35546875 12.64453125 C2.04009731 6.46271286 2.04009731 6.46271286 0 2 C0 1.34 0 0.68 0 0 Z " fill="#C55833" transform="translate(66,120)"/>
<path d="M0 0 C0.89674777 2.51089376 1.13172674 3.64535109 0.1875 6.1875 C-1 8 -1 8 -3 9 C-2.67 10.32 -2.34 11.64 -2 13 C-0.68 13 0.64 13 2 13 C0.92598892 15.91517292 0.22189824 17.77810176 -2 20 C-2.33 18.35 -2.66 16.7 -3 15 C-3.99 15.495 -3.99 15.495 -5 16 C-4.67 14.35 -4.34 12.7 -4 11 C-7.24849977 12.72226496 -7.24849977 12.72226496 -8 16 C-8.66 16 -9.32 16 -10 16 C-9.01969165 9.62799572 -4.05579444 4.73176018 0 0 Z " fill="#D85A31" transform="translate(66,64)"/>
<path d="M0 0 C0 2.31 0 4.62 0 7 C-0.92232422 7.09087891 -0.92232422 7.09087891 -1.86328125 7.18359375 C-2.67152344 7.26738281 -3.47976562 7.35117187 -4.3125 7.4375 C-5.11300781 7.51871094 -5.91351563 7.59992187 -6.73828125 7.68359375 C-9.16087179 7.95265693 -9.16087179 7.95265693 -12 9 C-12.66 8.67 -13.32 8.34 -14 8 C-14 7.34 -14 6.68 -14 6 C-10.535 5.505 -10.535 5.505 -7 5 C-8.98 4.34 -10.96 3.68 -13 3 C-13 2.34 -13 1.68 -13 1 C-8.61414671 0.29826347 -4.44209357 -0.10834375 0 0 Z " fill="#F15929" transform="translate(99,25)"/>
<path d="M0 0 C0.81434143 2.85160391 1.11881242 5.36626131 1.09765625 8.328125 C1.09443359 9.12734375 1.09121094 9.9265625 1.08789062 10.75 C1.07951172 11.575 1.07113281 12.4 1.0625 13.25 C1.05798828 14.09046875 1.05347656 14.9309375 1.04882812 15.796875 C1.03707961 17.86461401 1.01914522 19.93231624 1 22 C0.01 22 -0.98 22 -2 22 C-2.33 22.66 -2.66 23.32 -3 24 C-5.55793911 18.24463701 -5.58603289 12.1878179 -5 6 C-4.34 4.68 -3.68 3.36 -3 2 C-3 7.94 -3 13.88 -3 20 C-2.34 20 -1.68 20 -1 20 C-1.01160156 18.80761719 -1.02320312 17.61523438 -1.03515625 16.38671875 C-1.04453592 14.82031406 -1.05363593 13.25390769 -1.0625 11.6875 C-1.07506836 10.50897461 -1.07506836 10.50897461 -1.08789062 9.30664062 C-1.09111328 8.54931641 -1.09433594 7.79199219 -1.09765625 7.01171875 C-1.10289307 6.31522217 -1.10812988 5.61872559 -1.11352539 4.90112305 C-1 3 -1 3 0 0 Z " fill="#320802" transform="translate(66,88)"/>
<path d="M0 0 C2.56894902 2.56894902 5.11506026 5.12628565 7.5625 7.8125 C9.95030433 10.44527316 9.95030433 10.44527316 14 10 C13.67 12.64 13.34 15.28 13 18 C10.64460401 16.02472555 8.31963774 14.0170763 6 12 C5.05125 11.195625 4.1025 10.39125 3.125 9.5625 C0.49189873 6.38728965 0.23879479 4.05951135 0 0 Z " fill="#3E0E07" transform="translate(48,136)"/>
<path d="M0 0 C2 1 2 1 3.625 4 C6.32386657 8.95478938 10.16976236 12.90015825 14 17 C13.34 18.32 12.68 19.64 12 21 C11.67 20.34 11.34 19.68 11 19 C11.33 18.34 11.66 17.68 12 17 C11.360625 16.87625 10.72125 16.7525 10.0625 16.625 C9.0415625 16.315625 9.0415625 16.315625 8 16 C7.67 15.34 7.34 14.68 7 14 C4.97536745 13.34786708 4.97536745 13.34786708 3 13 C2.87625 12.278125 2.7525 11.55625 2.625 10.8125 C2.07777503 7.9843652 2.07777503 7.9843652 0.9375 5.375 C0 3 0 3 0 0 Z " fill="#D3562F" transform="translate(52,123)"/>
<path d="M0 0 C0.66 0 1.32 0 2 0 C0.40264972 3.35364089 -1.49611541 6.46033437 -3.4375 9.625 C-6.56883126 14.93521593 -8.60808386 20.00813244 -10 26 C-10.33 26 -10.66 26 -11 26 C-10.505 21.545 -10.505 21.545 -10 17 C-10.66 17 -11.32 17 -12 17 C-12 16.01 -12 15.02 -12 14 C-10.68 14.33 -9.36 14.66 -8 15 C-7.67 13.35 -7.34 11.7 -7 10 C-6.34 10 -5.68 10 -5 10 C-5.33 8.35 -5.66 6.7 -6 5 C-5.01 5 -4.02 5 -3 5 C-2.690625 4.360625 -2.38125 3.72125 -2.0625 3.0625 C-1 1 -1 1 0 0 Z " fill="#D35B35" transform="translate(46,58)"/>
<path d="M0 0 C0.12375 0.639375 0.2475 1.27875 0.375 1.9375 C0.684375 2.9584375 0.684375 2.9584375 1 4 C1.66 4.33 2.32 4.66 3 5 C2.01 5.33 1.02 5.66 0 6 C-1.79955982 14.82534975 -2.25190983 23.25892693 -2.125 32.25 C-2.11597656 33.48363281 -2.10695313 34.71726563 -2.09765625 35.98828125 C-2.07436851 38.99240024 -2.04166756 41.99608943 -2 45 C-2.33 45 -2.66 45 -3 45 C-6.2806483 30.28083563 -4.67996882 14.20704819 0 0 Z " fill="#D35E36" transform="translate(28,72)"/>
<path d="M0 0 C2.97 0 5.94 0 9 0 C6.36083292 1.75944472 4.31373855 2.68645652 1.375 3.75 C-3.24054817 5.54080566 -7.07548857 7.85266422 -11.08984375 10.73046875 C-13 12 -13 12 -16 13 C-15.34 11.02 -14.68 9.04 -14 7 C-12.35 7 -10.7 7 -9 7 C-8.67 6.34 -8.34 5.68 -8 5 C-7.34 5.33 -6.68 5.66 -6 6 C-5.67 5.01 -5.34 4.02 -5 3 C-3.35 2.67 -1.7 2.34 0 2 C0 1.34 0 0.68 0 0 Z " fill="#D35B37" transform="translate(74,35)"/>
<path d="M0 0 C2.64 0 5.28 0 8 0 C8 3.63 8 7.26 8 11 C2.47322267 11.19392201 -1.75614911 10.7479503 -7 9 C-7 8.67 -7 8.34 -7 8 C-2.71 8.33 1.58 8.66 6 9 C6 6.69 6 4.38 6 2 C3.03 1.505 3.03 1.505 0 1 C0 0.67 0 0.34 0 0 Z " fill="#B05034" transform="translate(93,166)"/>
<path d="M0 0 C0 0.66 0 1.32 0 2 C-1.32 2 -2.64 2 -4 2 C-4 2.66 -4 3.32 -4 4 C-2.35 3.67 -0.7 3.34 1 3 C1 4.32 1 5.64 1 7 C-7.57142857 6.14285714 -7.57142857 6.14285714 -11 4 C-9.77636907 1.55273814 -8.72372729 0.26536667 -6.125 -0.6875 C-3.78011931 -1.0323354 -2.23907765 -0.71970353 0 0 Z " fill="#F25824" transform="translate(98,126)"/>
<path d="M0 0 C0.71285156 0.45890625 1.42570312 0.9178125 2.16015625 1.390625 C7.37254796 4.72992305 12.58843574 7.99357541 18 11 C14.30581799 12.231394 11.7943739 11.64432764 8 11 C8 10.34 8 9.68 8 9 C6.35 9 4.7 9 3 9 C2.814375 8.1646875 2.814375 8.1646875 2.625 7.3125 C1.94023721 4.77887769 0.99061509 2.42821505 0 0 Z " fill="#E55B2F" transform="translate(56,150)"/>
<path d="M0 0 C1.8871875 0.0309375 1.8871875 0.0309375 3.8125 0.0625 C3.8125 3.3625 3.8125 6.6625 3.8125 10.0625 C2.1625 10.0625 0.5125 10.0625 -1.1875 10.0625 C-0.5275 9.4025 0.1325 8.7425 0.8125 8.0625 C1.21014263 6.07428687 1.55025349 4.07305661 1.8125 2.0625 C0.8225 2.3925 -0.1675 2.7225 -1.1875 3.0625 C-1.1875 3.7225 -1.1875 4.3825 -1.1875 5.0625 C-4.1575 4.7325 -7.1275 4.4025 -10.1875 4.0625 C-6.68766122 0.56266122 -4.74438704 -0.07777684 0 0 Z " fill="#CB5D3B" transform="translate(97.1875,64.9375)"/>
<path d="M0 0 C2.29156803 0.2554181 4.53719055 0.59076022 6.80078125 1.02734375 C6.08921875 1.67703125 6.08921875 1.67703125 5.36328125 2.33984375 C3.56391168 4.05043988 3.56391168 4.05043988 2.80078125 7.02734375 C1.48078125 6.36734375 0.16078125 5.70734375 -1.19921875 5.02734375 C-1.19921875 5.68734375 -1.19921875 6.34734375 -1.19921875 7.02734375 C-2.84921875 7.35734375 -4.49921875 7.68734375 -6.19921875 8.02734375 C-5.49065428 4.05938271 -4.65496787 0.05787704 0 0 Z " fill="#EF5926" transform="translate(73.19921875,44.97265625)"/>
<path d="M0 0 C0.70189453 0.00451172 1.40378906 0.00902344 2.12695312 0.01367188 C3.85550538 0.02543073 5.58401365 0.04336546 7.3125 0.0625 C7.3125 0.3925 7.3125 0.7225 7.3125 1.0625 C5.0025 1.3925 2.6925 1.7225 0.3125 2.0625 C0.3125 5.6925 0.3125 9.3225 0.3125 13.0625 C-0.0175 13.0625 -0.3475 13.0625 -0.6875 13.0625 C-0.6875 9.7625 -0.6875 6.4625 -0.6875 3.0625 C-4.9775 3.0625 -9.2675 3.0625 -13.6875 3.0625 C-9.06453806 -0.01947463 -5.37263877 -0.0652141 0 0 Z " fill="#1C0302" transform="translate(101.6875,61.9375)"/>
<path d="M0 0 C1.48117801 0.28127421 2.95993249 0.57533732 4.4375 0.875 C5.67306641 1.11863281 5.67306641 1.11863281 6.93359375 1.3671875 C7.61550781 1.57601562 8.29742187 1.78484375 9 2 C9.33 2.66 9.66 3.32 10 4 C8.88536076 6.78939871 7.41371466 9.34393004 6 12 C3.03 11.01 0.06 10.02 -3 9 C0.58779175 8.10305206 3.34618837 7.91695883 7 8 C7 6.35 7 4.7 7 3 C6.1028125 3.309375 6.1028125 3.309375 5.1875 3.625 C3 4 3 4 0 2 C0 1.34 0 0.68 0 0 Z " fill="#C75735" transform="translate(113,53)"/>
<path d="M0 0 C2.625 0.375 2.625 0.375 5 1 C3.5682479 6.01113235 1.01554307 7.94469549 -3 11 C-2.835 10.2575 -2.67 9.515 -2.5 8.75 C-1.88074304 5.80993422 -1.88074304 5.80993422 -2 2 C-1.34 1.34 -0.68 0.68 0 0 Z " fill="#E0582E" transform="translate(54,44)"/>
<path d="M0 0 C0.515625 0.2475 1.03125 0.495 1.5625 0.75 C1.5625 1.41 1.5625 2.07 1.5625 2.75 C-0.08083504 3.78789581 -1.74993867 4.78567924 -3.4375 5.75 C-4.0975 6.41 -4.7575 7.07 -5.4375 7.75 C-8.0625 7.375 -8.0625 7.375 -10.4375 6.75 C-9.15564628 2.90443885 -7.65170223 2.32931973 -4.2265625 0.46875 C-2.4375 -0.25 -2.4375 -0.25 0 0 Z " fill="#DC5C2F" transform="translate(70.4375,30.25)"/>
<path d="M0 0 C5.61 0 11.22 0 17 0 C17 0.66 17 1.32 17 2 C17.66 2 18.32 2 19 2 C18.67 2.66 18.34 3.32 18 4 C11.73 3.34 5.46 2.68 -1 2 C-0.67 1.34 -0.34 0.68 0 0 Z " fill="#120201" transform="translate(95,48)"/>
<path d="M0 0 C0.680625 0.70125 1.36125 1.4025 2.0625 2.125 C5.20780513 5.27934337 8.5888386 8.13934304 12 11 C11.67 11.66 11.34 12.32 11 13 C8.03 12.505 8.03 12.505 5 12 C5 11.34 5 10.68 5 10 C4.34 10 3.68 10 3 10 C2.49596232 8.70990357 1.99690074 7.41786211 1.5 6.125 C1.2215625 5.40570313 0.943125 4.68640625 0.65625 3.9453125 C0 2 0 2 0 0 Z " fill="#320F0A" transform="translate(38,145)"/>
<path d="M0 0 C1.22589844 0.29197266 1.22589844 0.29197266 2.4765625 0.58984375 C3.41628906 0.82380859 3.41628906 0.82380859 4.375 1.0625 C4.045 2.3825 3.715 3.7025 3.375 5.0625 C2.715 5.0625 2.055 5.0625 1.375 5.0625 C1.375 5.7225 1.375 6.3825 1.375 7.0625 C-2.4202131 5.57152342 -4.23542731 3.30549151 -6.625 0.0625 C-3.99249612 -1.25375194 -2.82320944 -0.68563658 0 0 Z " fill="#E75C2E" transform="translate(48.625,148.9375)"/>
<path d="M0 0 C1.65 0 3.3 0 5 0 C5 3.3 5 6.6 5 10 C-1.15234375 9.4140625 -1.15234375 9.4140625 -3 9 C-3.33 8.34 -3.66 7.68 -4 7 C-1.69 7.33 0.62 7.66 3 8 C2.67 7.01 2.34 6.02 2 5 C0.68 5 -0.64 5 -2 5 C-2 4.34 -2 3.68 -2 3 C-0.68 3 0.64 3 2 3 C2 2.34 2 1.68 2 1 C1.34 0.67 0.68 0.34 0 0 Z " fill="#CA5C39" transform="translate(96,125)"/>
<path d="M0 0 C0.33 0 0.66 0 1 0 C0.125 7.75 0.125 7.75 -1 10 C-0.01 10 0.98 10 2 10 C2 10.66 2 11.32 2 12 C3.32 12.33 4.64 12.66 6 13 C5.67 13.33 5.34 13.66 5 14 C6.32 14.66 7.64 15.32 9 16 C6.3333581 17.33332095 4.83319697 16.67102033 2 16 C1.67 14.68 1.34 13.36 1 12 C-0.32 11.67 -1.64 11.34 -3 11 C-3.125 8.625 -3.125 8.625 -3 6 C-2.34 5.34 -1.68 4.68 -1 4 C-0.3574765 1.93125966 -0.3574765 1.93125966 0 0 Z " fill="#F55C2F" transform="translate(77,110)"/>
<path d="M0 0 C0.75 1.75 0.75 1.75 1 4 C0.443125 4.53625 -0.11375 5.0725 -0.6875 5.625 C-5.34801538 10.41147525 -7.01934246 17.7279178 -9 24 C-9.66 23.67 -10.32 23.34 -11 23 C-8.98899218 14.86776662 -6.04348285 6.04348285 0 0 Z " fill="#C45833" transform="translate(50,62)"/>
<path d="M0 0 C1.65 0.99 3.3 1.98 5 3 C3.62845496 5.95409701 2.01136276 8.44008376 0 11 C-3.26954202 10.43628586 -4.82575883 9.50037734 -7 7 C-4.69 7 -2.38 7 0 7 C0 4.69 0 2.38 0 0 Z " fill="#C85734" transform="translate(136,48)"/>
<path d="M0 0 C1.15242188 0.00902344 2.30484375 0.01804688 3.4921875 0.02734375 C4.36101562 0.03894531 5.22984375 0.05054688 6.125 0.0625 C6.125 0.3925 6.125 0.7225 6.125 1.0625 C0.185 1.5575 0.185 1.5575 -5.875 2.0625 C-2.905 2.3925 0.065 2.7225 3.125 3.0625 C3.125 3.3925 3.125 3.7225 3.125 4.0625 C-2.155 4.0625 -7.435 4.0625 -12.875 4.0625 C-12.875 3.0725 -12.875 2.0825 -12.875 1.0625 C-8.52167264 0.22226812 -4.43057481 -0.04520995 0 0 Z " fill="#3A0B04" transform="translate(100.875,46.9375)"/>
<path d="M0 0 C2.64 1.32 5.28 2.64 8 4 C6.02 4.99 6.02 4.99 4 6 C4 7.98 4 9.96 4 12 C2.68 11.34 1.36 10.68 0 10 C0.33 8.35 0.66 6.7 1 5 C-1.475 4.01 -1.475 4.01 -4 3 C-3.34 2.67 -2.68 2.34 -2 2 C0.125 2.9375 0.125 2.9375 2 4 C2 3.34 2 2.68 2 2 C1.34 2 0.68 2 0 2 C0 1.34 0 0.68 0 0 Z " fill="#290B07" transform="translate(80,128)"/>
<path d="M0 0 C0 0.33 0 0.66 0 1 C-0.66644531 1.02578125 -1.33289063 1.0515625 -2.01953125 1.078125 C-10.75727731 1.61583245 -18.2413955 3.98568723 -26 8 C-26 7.34 -26 6.68 -26 6 C-25.34 6 -24.68 6 -24 6 C-24 5.34 -24 4.68 -24 4 C-23.01 4 -22.02 4 -21 4 C-21 3.34 -21 2.68 -21 2 C-13.87049629 0.09879901 -7.36259293 -0.22424141 0 0 Z " fill="#C65C39" transform="translate(104,60)"/>
<path d="M0 0 C2.64 0 5.28 0 8 0 C8.33 1.65 8.66 3.3 9 5 C8.34 4.67 7.68 4.34 7 4 C6.67 4.66 6.34 5.32 6 6 C3.97954558 5.39816251 1.97888961 4.72693904 0 4 C-0.33 3.34 -0.66 2.68 -1 2 C-0.67 1.34 -0.34 0.68 0 0 Z " fill="#160707" transform="translate(63,152)"/>
<path d="M0 0 C0.66 0.33 1.32 0.66 2 1 C2.4140625 3.28515625 2.4140625 3.28515625 2.625 6.0625 C2.69976562 6.98160156 2.77453125 7.90070312 2.8515625 8.84765625 C2.90054688 9.55792969 2.94953125 10.26820312 3 11 C2.01 11.33 1.02 11.66 0 12 C0 8.7 0 5.4 0 2 C-3.3 2 -6.6 2 -10 2 C-6.33134759 -0.44576827 -4.32799657 -0.23607254 0 0 Z " fill="#2A0B08" transform="translate(101,22)"/>
<path d="M0 0 C4 6 4 6 8 12 C6.35 12.33 4.7 12.66 3 13 C0.95204577 11.0373772 0.05023362 9.5722693 -0.19921875 6.73046875 C-0.18858877 4.48045617 -0.12958525 2.24614438 0 0 Z " fill="#231819" transform="translate(80,105)"/>
<path d="M0 0 C3.91939465 3.80411834 7.49102731 7.81576108 11 12 C10.01 12.33 9.02 12.66 8 13 C8 12.34 8 11.68 8 11 C6.68 10.67 5.36 10.34 4 10 C3.896875 9.360625 3.79375 8.72125 3.6875 8.0625 C3.460625 7.381875 3.23375 6.70125 3 6 C2.01 5.67 1.02 5.34 0 5 C0 3.35 0 1.7 0 0 Z " fill="#CF5A35" transform="translate(45,138)"/>
<path d="M0 0 C1.98 0 3.96 0 6 0 C6.33 0.99 6.66 1.98 7 3 C6.67 3.66 6.34 4.32 6 5 C7.32 5 8.64 5 10 5 C10 5.66 10 6.32 10 7 C10.99 7 11.98 7 13 7 C13 7.66 13 8.32 13 9 C9.87118584 8.36720612 7.52253992 7.30288588 4.8125 5.625 C4.11769531 5.20476562 3.42289062 4.78453125 2.70703125 4.3515625 C1 3 1 3 0 0 Z " fill="#DF582B" transform="translate(62,130)"/>
<path d="M0 0 C0.33 0 0.66 0 1 0 C1 3.96 1 7.92 1 12 C1.66 11.67 2.32 11.34 3 11 C3 14.3 3 17.6 3 21 C-0.56953156 16.24062459 -1.13897652 14.82781383 -1.125 9.0625 C-1.12757812 8.00160156 -1.13015625 6.94070312 -1.1328125 5.84765625 C-1 3 -1 3 0 0 Z " fill="#2E0C06" transform="translate(77,91)"/>
<path d="M0 0 C-0.51949219 0.24234375 -1.03898437 0.4846875 -1.57421875 0.734375 C-5.81271608 2.77136078 -9.43232946 4.87828828 -13 8 C-13 7.34 -13 6.68 -13 6 C-13.99 6 -14.98 6 -16 6 C-15.67 5.01 -15.34 4.02 -15 3 C-13.02 3 -11.04 3 -9 3 C-9 2.34 -9 1.68 -9 1 C-5.47051709 -0.66670026 -3.71727674 -1.13583456 0 0 Z " fill="#D85D36" transform="translate(94,76)"/>
<path d="M0 0 C0.66 0.99 1.32 1.98 2 3 C2.99 3.33 3.98 3.66 5 4 C5 4.66 5 5.32 5 6 C4.01 6 3.02 6 2 6 C1.67 6.99 1.34 7.98 1 9 C0.67 7.68 0.34 6.36 0 5 C-0.66 5 -1.32 5 -2 5 C-2.33 5.66 -2.66 6.32 -3 7 C-4.125 3.25 -4.125 3.25 -3 1 C-2.01 0.67 -1.02 0.34 0 0 Z " fill="#F05723" transform="translate(59,136)"/>
<path d="M0 0 C2.88437779 1.29299694 4.87219421 2.65941363 7 5 C6.34 5.66 5.68 6.32 5 7 C4.01 6.34 3.02 5.68 2 5 C2 5.99 2 6.98 2 8 C1.01 8.33 0.02 8.66 -1 9 C-1.09765625 2.84765625 -1.09765625 2.84765625 -1 1 C-0.67 0.67 -0.34 0.34 0 0 Z " fill="#120505" transform="translate(49,158)"/>
<path d="M0 0 C2.64 0 5.28 0 8 0 C4.98029212 1.56629708 1.91349586 2.87625164 -1.25 4.125 C-2.14203125 4.47820313 -3.0340625 4.83140625 -3.953125 5.1953125 C-4.62859375 5.46085937 -5.3040625 5.72640625 -6 6 C-6.33 5.01 -6.66 4.02 -7 3 C-4.625 1.9375 -4.625 1.9375 -2 1 C-1.34 1.33 -0.68 1.66 0 2 C0 1.34 0 0.68 0 0 Z " fill="#270805" transform="translate(74,25)"/>
<path d="M0 0 C1.98 0 3.96 0 6 0 C6.33 0.99 6.66 1.98 7 3 C7.33 2.34 7.66 1.68 8 1 C8.66 1 9.32 1 10 1 C9.67 2.32 9.34 3.64 9 5 C7.68 5.33 6.36 5.66 5 6 C3.35 4.02 1.7 2.04 0 0 Z " fill="#E16136" transform="translate(53,141)"/>
<path d="M0 0 C-3.625 3 -3.625 3 -7 3 C-7 3.66 -7 4.32 -7 5 C-9.31 5 -11.62 5 -14 5 C-10.58522132 -0.12216802 -5.84766819 -0.27846039 0 0 Z " fill="#D35A33" transform="translate(89,39)"/>
<path d="M0 0 C0.66 0.33 1.32 0.66 2 1 C1.67 1.66 1.34 2.32 1 3 C1.66 3.33 2.32 3.66 3 4 C0.69 5.65 -1.62 7.3 -4 9 C-4.33 8.34 -4.66 7.68 -5 7 C-5.33 6.67 -5.66 6.34 -6 6 C-4 4 -2 2 0 0 Z " fill="#2F0D05" transform="translate(63,44)"/>
<path d="M0 0 C0.33 0 0.66 0 1 0 C1.22151549 1.79008467 1.42682213 3.58218162 1.625 5.375 C1.74101563 6.37273437 1.85703125 7.37046875 1.9765625 8.3984375 C1.98429687 9.25695312 1.99203125 10.11546875 2 11 C1.34 11.66 0.68 12.32 0 13 C-1.31626692 9.38026598 -2 6.90432869 -2 3 C-1.34 3 -0.68 3 0 3 C0 2.01 0 1.02 0 0 Z " fill="#DE5B30" transform="translate(41,109)"/>
<path d="M0 0 C2.64 0.33 5.28 0.66 8 1 C7.67 2.32 7.34 3.64 7 5 C6.01 4.67 5.02 4.34 4 4 C3.67 4.99 3.34 5.98 3 7 C0.64046906 4.64046906 0.50858587 3.22104383 0 0 Z " fill="#1A0604" transform="translate(112,63)"/>
<path d="M0 0 C3.36720387 1.39332574 4.9859524 2.9789286 7 6 C5.68 5.67 4.36 5.34 3 5 C2.67 5.99 2.34 6.98 2 8 C0.4375 6.25 0.4375 6.25 -1 4 C-0.6875 1.75 -0.6875 1.75 0 0 Z " fill="#280B05" transform="translate(64,134)"/>
<path d="M0 0 C0.99 0 1.98 0 3 0 C3 3.63 3 7.26 3 11 C2.01 11 1.02 11 0 11 C0 7.37 0 3.74 0 0 Z " fill="#190302" transform="translate(101,124)"/>
<path d="M0 0 C0.66 0 1.32 0 2 0 C1.98839844 1.03640625 1.97679688 2.0728125 1.96484375 3.140625 C1.95546163 4.51041486 1.94636188 5.88020668 1.9375 7.25 C1.92912109 7.93191406 1.92074219 8.61382812 1.91210938 9.31640625 C1.89571608 12.69342554 1.94371232 15.77291639 3 19 C2.34 19.33 1.68 19.66 1 20 C-0.1482685 17.703463 -0.11561175 16.41686833 -0.09765625 13.8671875 C-0.09443359 13.06152344 -0.09121094 12.25585938 -0.08789062 11.42578125 C-0.07951172 10.58402344 -0.07113281 9.74226563 -0.0625 8.875 C-0.05798828 8.02550781 -0.05347656 7.17601563 -0.04882812 6.30078125 C-0.03702874 4.20049091 -0.01909306 2.1002367 0 0 Z " fill="#D35F38" transform="translate(75,91)"/>
<path d="M0 0 C0 0.66 0 1.32 0 2 C1.98 2 3.96 2 6 2 C6 2.33 6 2.66 6 3 C4.75283203 3.19916016 4.75283203 3.19916016 3.48046875 3.40234375 C2.39378906 3.57894531 1.30710937 3.75554687 0.1875 3.9375 C-0.89144531 4.11152344 -1.97039062 4.28554687 -3.08203125 4.46484375 C-6.04933356 4.93871921 -6.04933356 4.93871921 -9 6 C-8 3 -8 3 -5.0625 1.3125 C-2 0 -2 0 0 0 Z " fill="#121115" transform="translate(98,76)"/>
<path d="M0 0 C0.93065133 2.60582371 1.14917407 3.64198224 0.0625 6.25 C-0.4634375 7.11625 -0.4634375 7.11625 -1 8 C-1.99 8 -2.98 8 -4 8 C-4.33 8.66 -4.66 9.32 -5 10 C-5.66 10 -6.32 10 -7 10 C-5.33248852 6.05860922 -2.77289351 3.2107188 0 0 Z " fill="#CA5534" transform="translate(66,64)"/>
<path d="M0 0 C1.98 0.495 1.98 0.495 4 1 C4 2.98 4 4.96 4 7 C1 7 1 7 -1 6 C-0.67 4.02 -0.34 2.04 0 0 Z " fill="#F45A28" transform="translate(56,111)"/>
<path d="M0 0 C0.99 0 1.98 0 3 0 C2.67 6.93 2.34 13.86 2 21 C1.67 21 1.34 21 1 21 C0.67 14.07 0.34 7.14 0 0 Z " fill="#BA512F" transform="translate(32,85)"/>
<path d="M0 0 C-3.60957611 3.2910841 -6.12637153 4.54663921 -11 5 C-10.25 3.0625 -10.25 3.0625 -9 1 C-6.05528957 -0.21850087 -3.15451555 -0.08762543 0 0 Z " fill="#150302" transform="translate(88,66)"/>
<path d="M0 0 C0.33 2.31 0.66 4.62 1 7 C0.34 7 -0.32 7 -1 7 C-1.33 7.99 -1.66 8.98 -2 10 C-3.125 8.25 -3.125 8.25 -4 6 C-3.125 3.75 -3.125 3.75 -2 2 C-2.66 1.67 -3.32 1.34 -4 1 C-2 0 -2 0 0 0 Z " fill="#110706" transform="translate(143,49)"/>
<path d="M0 0 C-2.1385485 2.1385485 -3.13275314 2.42655063 -6 3 C-5.67 3.66 -5.34 4.32 -5 5 C-6.32 4.67 -7.64 4.34 -9 4 C-9 2.68 -9 1.36 -9 0 C-5.52176885 -1.15941038 -3.54104422 -0.70820884 0 0 Z " fill="#E65B35" transform="translate(96,124)"/>
<path d="M0 0 C2.6486859 3.19668988 4.93992341 6.39486597 7 10 C6.01 10 5.02 10 4 10 C3.67 8.68 3.34 7.36 3 6 C1.02 6.99 1.02 6.99 -1 8 C-0.67 5.36 -0.34 2.72 0 0 Z " fill="#D15A30" transform="translate(78,110)"/>
<path d="M0 0 C1.50560497 2.85410334 2.63216796 5.68124642 3.625 8.75 C3.88539062 9.54921875 4.14578125 10.3484375 4.4140625 11.171875 C4.60742188 11.77515625 4.80078125 12.3784375 5 13 C4.34 13 3.68 13 3 13 C3 12.34 3 11.68 3 11 C2.34 11 1.68 11 1 11 C-0.20272819 8.59454362 -0.10071472 7.05003047 -0.0625 4.375 C-0.05347656 3.55773437 -0.04445312 2.74046875 -0.03515625 1.8984375 C-0.02355469 1.27195312 -0.01195312 0.64546875 0 0 Z " fill="#C75A34" transform="translate(61,106)"/>
<path d="M0 0 C0.66 0 1.32 0 2 0 C2.144375 0.639375 2.28875 1.27875 2.4375 1.9375 C2.81007181 3.97545146 2.81007181 3.97545146 4 5 C4.04063832 6.66617115 4.042721 8.33388095 4 10 C1.9754262 8.06745228 0.57894208 6.36841312 -1 4 C-0.625 1.8125 -0.625 1.8125 0 0 Z " fill="#D85B37" transform="translate(58,120)"/>
<path d="M0 0 C1.32 0 2.64 0 4 0 C4.33 1.98 4.66 3.96 5 6 C4.01 6 3.02 6 2 6 C2 5.34 2 4.68 2 4 C1.34 4 0.68 4 0 4 C0 2.68 0 1.36 0 0 Z " fill="#160405" transform="translate(64,110)"/>
<path d="M0 0 C-1.14018002 3.42054006 -1.92458518 4.2426201 -5 6 C-7.13671875 5.578125 -7.13671875 5.578125 -9 5 C-7.87926138 4.16094435 -6.75325453 3.32892169 -5.625 2.5 C-4.99851562 2.0359375 -4.37203125 1.571875 -3.7265625 1.09375 C-2 0 -2 0 0 0 Z " fill="#D15933" transform="translate(71,45)"/>
<path d="M0 0 C0.66 0 1.32 0 2 0 C2 0.66 2 1.32 2 2 C2.66 2 3.32 2 4 2 C4.33 1.34 4.66 0.68 5 0 C5.99 1.32 6.98 2.64 8 4 C6.02 4.99 6.02 4.99 4 6 C2.62437146 4.71034824 1.29233607 3.37310707 0 2 C0 1.34 0 0.68 0 0 Z " fill="#D65533" transform="translate(50,156)"/>
<path d="M0 0 C0.33 0 0.66 0 1 0 C1.33 5.28 1.66 10.56 2 16 C-0.66374247 13.33625753 -0.65413435 11.73534903 -1 8 C-0.79583077 5.29718824 -0.41629739 2.68280538 0 0 Z " fill="#D96137" transform="translate(46,96)"/>
<path d="M0 0 C0.99 0.33 1.98 0.66 3 1 C2.01 3.31 1.02 5.62 0 8 C-0.33 7.34 -0.66 6.68 -1 6 C-1.66 6 -2.32 6 -3 6 C-1.125 1.125 -1.125 1.125 0 0 Z " fill="#DF5A35" transform="translate(50,76)"/>
<path d="M0 0 C0 0.66 0 1.32 0 2 C-0.99 2 -1.98 2 -3 2 C-3.33 3.32 -3.66 4.64 -4 6 C-4.66 6 -5.32 6 -6 6 C-6 5.34 -6 4.68 -6 4 C-6.66 3.67 -7.32 3.34 -8 3 C-4.93882432 0.37613513 -4.26826873 0 0 0 Z " fill="#350E08" transform="translate(80,52)"/>
<path d="M0 0 C3.3 0 6.6 0 10 0 C10 1.65 10 3.3 10 5 C5 3 5 3 0 1 C0 0.67 0 0.34 0 0 Z " fill="#D55A30" transform="translate(119,50)"/>
<path d="M0 0 C0 2.66666667 0 5.33333333 0 8 C-1.98 6.35 -3.96 4.7 -6 3 C-3 1 -3 1 0 0 Z " fill="#45160B" transform="translate(61,146)"/>
<path d="M0 0 C3.3 0 6.6 0 10 0 C9.67 1.32 9.34 2.64 9 4 C6.03 3.01 3.06 2.02 0 1 C0 0.67 0 0.34 0 0 Z " fill="#D25E3D" transform="translate(110,61)"/>
<path d="M0 0 C0 0.99 0 1.98 0 3 C-3 5 -3 5 -5.1875 4.625 C-5.785625 4.41875 -6.38375 4.2125 -7 4 C-3.375 0 -3.375 0 0 0 Z " fill="#1C0503" transform="translate(74,56)"/>
<path d="M0 0 C2 2 2 2 2 5 C0.68 5 -0.64 5 -2 5 C-2 4.34 -2 3.68 -2 3 C-2.99 3 -3.98 3 -5 3 C-5 2.34 -5 1.68 -5 1 C-2.625 0.375 -2.625 0.375 0 0 Z " fill="#F05A33" transform="translate(120,45)"/>
<path d="M0 0 C3.3 1.65 6.6 3.3 10 5 C6.30581799 6.231394 3.7943739 5.64432764 0 5 C0 3.35 0 1.7 0 0 Z " fill="#D65D39" transform="translate(64,156)"/>
<path d="M0 0 C0.598125 0.474375 1.19625 0.94875 1.8125 1.4375 C4.00382924 3.16465744 4.00382924 3.16465744 7 4 C6.67 4.99 6.34 5.98 6 7 C2.73539027 5.19587357 1.11070205 4.16605307 -1 1 C-0.67 0.67 -0.34 0.34 0 0 Z " fill="#220703" transform="translate(51,142)"/>
<path d="M0 0 C1.98 1.65 3.96 3.3 6 5 C5.34 6.32 4.68 7.64 4 9 C3.67 8.34 3.34 7.68 3 7 C3.33 6.34 3.66 5.68 4 5 C2.68 4.67 1.36 4.34 0 4 C0 2.68 0 1.36 0 0 Z " fill="#C85735" transform="translate(60,135)"/>
<path d="M0 0 C0.185625 0.9590625 0.185625 0.9590625 0.375 1.9375 C0.684375 2.9584375 0.684375 2.9584375 1 4 C1.66 4.33 2.32 4.66 3 5 C2.01 5.33 1.02 5.66 0 6 C-1.22520264 9.00847418 -1.22520264 9.00847418 -2 12 C-3.40907283 9.18185434 -2.50872691 7.82722796 -1.5625 4.875 C-1.27503906 3.96492188 -0.98757812 3.05484375 -0.69140625 2.1171875 C-0.46324219 1.41851562 -0.23507813 0.71984375 0 0 Z " fill="#C05230" transform="translate(28,72)"/>
<path d="M0 0 C2.97 0.33 5.94 0.66 9 1 C7.25 2.5625 7.25 2.5625 5 4 C2.75 3.6875 2.75 3.6875 1 3 C1.33 2.34 1.66 1.68 2 1 C1.34 0.67 0.68 0.34 0 0 Z " fill="#D85932" transform="translate(75,48)"/>
<path d="M0 0 C0.33 0.66 0.66 1.32 1 2 C0.01 2.495 0.01 2.495 -1 3 C-1.33 3.99 -1.66 4.98 -2 6 C-3.65 6 -5.3 6 -7 6 C-7 5.34 -7 4.68 -7 4 C-6.01 4 -5.02 4 -4 4 C-4 3.01 -4 2.02 -4 1 C-2.68 0.67 -1.36 0.34 0 0 Z " fill="#EB551F" transform="translate(89,122)"/>
<path d="M0 0 C0.6875 1.75 0.6875 1.75 1 4 C-0.375 6.0625 -0.375 6.0625 -2 8 C-2.33 8.99 -2.66 9.98 -3 11 C-3.66 11 -4.32 11 -5 11 C-3.77472971 6.94718288 -2.30119506 3.55639236 0 0 Z " fill="#C75C3A" transform="translate(34,61)"/>
<path d="M0 0 C-6.625 4 -6.625 4 -10 4 C-10 3.34 -10 2.68 -10 2 C-9.01 2 -8.02 2 -7 2 C-7 1.34 -7 0.68 -7 0 C-3.98968256 -0.93423645 -3.13349732 -1.04449911 0 0 Z " fill="#190604" transform="translate(87,52)"/>
<path d="M0 0 C2.5 2.3125 2.5 2.3125 5 5 C5 5.99 5 6.98 5 8 C2.5 6.8125 2.5 6.8125 0 5 C-0.3125 2.3125 -0.3125 2.3125 0 0 Z " fill="#C2542E" transform="translate(45,138)"/>
<path d="M0 0 C-0.99 0.495 -0.99 0.495 -2 1 C-2 1.66 -2 2.32 -2 3 C-5.3 3 -8.6 3 -12 3 C-8.48214012 -0.51785988 -4.80656342 -0.10924008 0 0 Z " fill="#DA6034" transform="translate(92,53)"/>
<path d="M0 0 C0.66 0.33 1.32 0.66 2 1 C1.67 1.66 1.34 2.32 1 3 C1.66 3 2.32 3 3 3 C2.67 4.32 2.34 5.64 2 7 C0.62437146 5.71034824 -0.70766393 4.37310707 -2 3 C-2 2.34 -2 1.68 -2 1 C-1.34 0.67 -0.68 0.34 0 0 Z " fill="#160607" transform="translate(133,41)"/>
<path d="M0 0 C2.7839183 1.39195915 2.97898997 3.15575779 4 6 C2.35 6.33 0.7 6.66 -1 7 C-0.7525 6.1028125 -0.7525 6.1028125 -0.5 5.1875 C0.1114124 2.88655664 0.1114124 2.88655664 0 0 Z " fill="#D45325" transform="translate(86,67)"/>
<path d="M0 0 C2.31 0 4.62 0 7 0 C6.67 0.99 6.34 1.98 6 3 C3.03 2.505 3.03 2.505 0 2 C0 1.34 0 0.68 0 0 Z " fill="#1C0505" transform="translate(116,52)"/>
<path d="M0 0 C0.66 0.33 1.32 0.66 2 1 C1.67 1.99 1.34 2.98 1 4 C1.66 4.66 2.32 5.32 3 6 C1.68 6.99 0.36 7.98 -1 9 C-1.09765625 2.84765625 -1.09765625 2.84765625 -1 1 C-0.67 0.67 -0.34 0.34 0 0 Z " fill="#210B07" transform="translate(49,35)"/>
<path d="M0 0 C2.95183101 2.95183101 3.08663988 5.95511947 4 10 C2.68 9.34 1.36 8.68 0 8 C0 5.36 0 2.72 0 0 Z " fill="#C65834" transform="translate(48,112)"/>
<path d="M0 0 C1.70840281 1.63412443 2.93453047 2.86906094 4 5 C3.0625 7.125 3.0625 7.125 2 9 C0.14223235 5.86501708 -0.20140476 3.62528568 0 0 Z " fill="#1E0303" transform="translate(49,109)"/>
<path d="M0 0 C0.33 0 0.66 0 1 0 C1 2.31 1 4.62 1 7 C0.01 7.33 -0.98 7.66 -2 8 C-1.125 1.125 -1.125 1.125 0 0 Z " fill="#140304" transform="translate(53,78)"/>
</svg>
